<?xml version="1.0" standalone="no"?>
<!DOCTYPE svg PUBLIC "-//W3C//DTD SVG 20010904//EN"
 "http://www.w3.org/TR/2001/REC-SVG-20010904/DTD/svg10.dtd">
<svg version="1.0" xmlns="http://www.w3.org/2000/svg"
 width="700.000000pt" height="700.000000pt" viewBox="0 0 700.000000 700.000000"
 preserveAspectRatio="xMidYMid meet">
<metadata>
Created by potrace 1.14, written by Peter Selinger 2001-2017
</metadata>
<g transform="translate(0.000000,700.000000) scale(0.100000,-0.100000)"
fill="#000000" stroke="none">
<path d="M1550 6238 c-16 -9 -40 -44 -68 -101 -54 -111 -61 -143 -33 -178 23
-30 13 -24 431 -219 168 -79 343 -161 390 -182 47 -22 141 -66 210 -98 69 -32
168 -78 220 -102 52 -25 122 -57 155 -73 33 -15 98 -46 145 -68 47 -22 137
-63 200 -92 63 -29 173 -80 243 -114 70 -33 130 -61 132 -61 2 0 63 -29 137
-64 73 -35 158 -75 188 -89 30 -13 192 -89 360 -167 168 -78 323 -150 345
-160 22 -10 90 -41 150 -70 61 -29 137 -65 170 -80 33 -15 103 -48 155 -73
l95 -46 -2070 0 c-2284 -1 -2135 3 -2238 -63 -64 -41 -124 -122 -148 -199 -18
-59 -19 -112 -19 -1489 0 -1361 1 -1431 18 -1488 37 -118 126 -207 243 -243
59 -18 141 -19 2533 -19 2701 0 2539 -3 2629 56 81 53 126 111 156 201 21 62
21 71 21 1490 0 957 -4 1441 -11 1468 -17 65 -50 124 -99 174 -63 64 -107 87
-210 106 -14 3 -32 14 -40 24 -8 11 -67 45 -130 75 -137 64 -394 185 -477 222
-32 14 -109 51 -171 80 -63 30 -115 54 -117 54 -1 0 -58 26 -126 59 -68 32
-149 70 -179 84 -30 14 -138 64 -240 112 -102 48 -234 109 -295 137 -60 28
-156 72 -212 99 -55 27 -131 62 -167 79 -157 72 -199 91 -345 159 -84 40 -186
87 -225 105 -97 45 -209 98 -345 162 -62 30 -115 54 -116 54 -2 0 -65 29 -140
65 -76 36 -139 65 -140 65 -2 0 -69 32 -150 70 -81 39 -148 70 -150 70 -2 0
-55 24 -117 54 -62 30 -135 64 -163 76 -27 13 -106 50 -175 82 -138 66 -173
75 -210 56z"/>
</g>
</svg>
